solid model
facet normal -0.2588190451025182 -0.965925826289069 0.0
outer loop
vertex 506.6787003902327 66.88459730590061 2.0000000000000004
vertex 505.58839135490797 67.33621809551002 0.0
vertex 506.6787003902327 66.88459730590061 0.0
endloop
endfacet
facet normal -0.5000000000000122 -0.8660254037844318 0.0
outer loop
vertex 505.58839135490797 67.33621809551002 0.0
vertex 506.6787003902327 66.88459730590061 2.0000000000000004
vertex 505.58839135490797 67.33621809551002 2.0000000000000004
endloop
endfacet
facet normal 0.8660254037844368 -0.5000000000000032 0.0
outer loop
vertex 511.7637953824036 68.9909126176131 0.0
vertex 511.04537045464167 68.05464302327213 2.0000000000000004
vertex 511.04537045464167 68.05464302327213 0.0
endloop
endfacet
facet normal 0.7071067811865291 -0.7071067811865659 0.0
outer loop
vertex 511.04537045464167 68.05464302327213 2.0000000000000004
vertex 511.7637953824036 68.9909126176131 0.0
vertex 511.7637953824036 68.9909126176131 2.0000000000000004
endloop
endfacet
facet normal -0.7071067811865291 0.7071067811865659 0.0
outer loop
vertex 504.6521217605668 74.44789171734699 2.0000000000000004
vertex 505.58839135490797 75.16631664510905 0.0
vertex 504.6521217605668 74.44789171734699 0.0
endloop
endfacet
facet normal -0.499999999999999 0.8660254037844392 0.0
outer loop
vertex 505.58839135490797 75.16631664510905 0.0
vertex 504.6521217605668 74.44789171734699 2.0000000000000004
vertex 505.58839135490797 75.16631664510905 2.0000000000000004
endloop
endfacet
facet normal -0.9659258262890676 0.2588190451025231 0.0
outer loop
vertex 503.4820760431952 72.42131308768087 2.0000000000000004
vertex 503.32803660221185 71.25126737030956 0.0
vertex 503.32803660221185 71.25126737030956 2.0000000000000004
endloop
endfacet
facet normal -1.0 0.0 0.0
outer loop
vertex 503.32803660221185 71.25126737030956 0.0
vertex 503.4820760431952 72.42131308768087 2.0000000000000004
vertex 503.4820760431952 72.42131308768087 0.0
endloop
endfacet
facet normal 0.0 0.0 1.0
outer loop
vertex 503.4820760431952 70.08122165293825 2.0000000000000004
vertex 503.4820760431952 72.42131308768087 2.0000000000000004
vertex 503.32803660221185 71.25126737030956 2.0000000000000004
endloop
endfacet
facet normal 0.0 0.0 1.0
outer loop
vertex 503.4820760431952 72.42131308768087 2.0000000000000004
vertex 503.4820760431952 70.08122165293825 2.0000000000000004
vertex 503.9336968328048 68.9909126176131 2.0000000000000004
endloop
endfacet
facet normal 0.0 0.0 1.0
outer loop
vertex 503.4820760431952 72.42131308768087 2.0000000000000004
vertex 503.9336968328048 68.9909126176131 2.0000000000000004
vertex 503.9336968328048 73.51162212300602 2.0000000000000004
endloop
endfacet
facet normal 0.0 0.0 1.0
outer loop
vertex 503.9336968328048 73.51162212300602 2.0000000000000004
vertex 503.9336968328048 68.9909126176131 2.0000000000000004
vertex 504.6521217605667 68.05464302327225 2.0000000000000004
endloop
endfacet
facet normal 0.0 0.0 1.0
outer loop
vertex 503.9336968328048 73.51162212300602 2.0000000000000004
vertex 504.6521217605667 68.05464302327225 2.0000000000000004
vertex 504.6521217605668 74.44789171734699 2.0000000000000004
endloop
endfacet
facet normal 0.0 0.0 1.0
outer loop
vertex 504.6521217605668 74.44789171734699 2.0000000000000004
vertex 504.6521217605667 68.05464302327225 2.0000000000000004
vertex 505.58839135490797 67.33621809551002 2.0000000000000004
endloop
endfacet
facet normal 0.0 0.0 1.0
outer loop
vertex 504.6521217605668 74.44789171734699 2.0000000000000004
vertex 505.58839135490797 67.33621809551002 2.0000000000000004
vertex 505.5470203154882 71.25126737030956 2.0000000000000004
endloop
endfacet
facet normal 0.0 0.0 1.0
outer loop
vertex 505.5470203154882 71.25126737030956 2.0000000000000004
vertex 505.58839135490797 67.33621809551002 2.0000000000000004
vertex 505.6254497199636 70.65553689870622 2.0000000000000004
endloop
endfacet
facet normal 0.0 0.0 1.0
outer loop
vertex 505.6254497199636 70.65553689870622 2.0000000000000004
vertex 505.58839135490797 67.33621809551002 2.0000000000000004
vertex 506.6787003902327 66.88459730590061 2.0000000000000004
endloop
endfacet
facet normal 0.0 0.0 1.0
outer loop
vertex 505.6254497199636 70.65553689870622 2.0000000000000004
vertex 506.6787003902327 66.88459730590061 2.0000000000000004
vertex 505.85539309908586 70.10040447425148 2.0000000000000004
endloop
endfacet
facet normal 0.0 0.0 1.0
outer loop
vertex 505.85539309908586 70.10040447425148 2.0000000000000004
vertex 506.6787003902327 66.88459730590061 2.0000000000000004
vertex 506.22118019156693 69.6237014542724 2.0000000000000004
endloop
endfacet
facet normal 0.0 0.0 1.0
outer loop
vertex 506.22118019156693 69.6237014542724 2.0000000000000004
vertex 506.6787003902327 66.88459730590061 2.0000000000000004
vertex 506.69788321154607 69.25791436179128 2.0000000000000004
endloop
endfacet
facet normal 0.0 0.0 1.0
outer loop
vertex 506.69788321154607 69.25791436179128 2.0000000000000004
vertex 506.6787003902327 66.88459730590061 2.0000000000000004
vertex 507.8487461076042 66.73055786491722 2.0000000000000004
endloop
endfacet
facet normal 0.0 0.0 1.0
outer loop
vertex 506.69788321154607 69.25791436179128 2.0000000000000004
vertex 507.8487461076042 66.73055786491722 2.0000000000000004
vertex 507.2530156360009 69.02797098266903 2.0000000000000004
endloop
endfacet
facet normal 0.0 0.0 1.0
outer loop
vertex 507.2530156360009 69.02797098266903 2.0000000000000004
vertex 507.8487461076042 66.73055786491722 2.0000000000000004
vertex 507.8487461076042 68.94954157819356 2.0000000000000004
endloop
endfacet
facet normal 0.0 0.0 1.0
outer loop
vertex 507.8487461076042 68.94954157819356 2.0000000000000004
vertex 507.8487461076042 66.73055786491722 2.0000000000000004
vertex 509.0187918249758 66.88459730590061 2.0000000000000004
endloop
endfacet
facet normal 0.0 0.0 1.0
outer loop
vertex 507.8487461076042 68.94954157819356 2.0000000000000004
vertex 509.0187918249758 66.88459730590061 2.0000000000000004
vertex 508.4444765792075 69.02797098266905 2.0000000000000004
endloop
endfacet
facet normal 0.0 0.0 1.0
outer loop
vertex 508.4444765792075 69.02797098266905 2.0000000000000004
vertex 509.0187918249758 66.88459730590061 2.0000000000000004
vertex 508.9996090036622 69.25791436179131 2.0000000000000004
endloop
endfacet
facet normal 0.0 0.0 1.0
outer loop
vertex 508.9996090036622 69.25791436179131 2.0000000000000004
vertex 509.0187918249758 66.88459730590061 2.0000000000000004
vertex 509.47631202364147 69.62370145427236 2.0000000000000004
endloop
endfacet
facet normal 0.0 0.0 1.0
outer loop
vertex 509.47631202364147 69.62370145427236 2.0000000000000004
vertex 509.0187918249758 66.88459730590061 2.0000000000000004
vertex 510.10910086030043 67.33621809551008 2.0000000000000004
endloop
endfacet
facet normal 0.0 0.0 1.0
outer loop
vertex 509.47631202364147 69.62370145427236 2.0000000000000004
vertex 510.10910086030043 67.33621809551008 2.0000000000000004
vertex 509.84209911612254 70.10040447425148 2.0000000000000004
endloop
endfacet
facet normal 0.0 0.0 1.0
outer loop
vertex 509.84209911612254 70.10040447425148 2.0000000000000004
vertex 510.10910086030043 67.33621809551008 2.0000000000000004
vertex 510.0720424952448 70.65553689870622 2.0000000000000004
endloop
endfacet
facet normal 0.0 0.0 1.0
outer loop
vertex 510.0720424952448 70.65553689870622 2.0000000000000004
vertex 510.10910086030043 67.33621809551008 2.0000000000000004
vertex 510.1504718997202 71.25126737030956 2.0000000000000004
endloop
endfacet
facet normal 0.0 0.0 1.0
outer loop
vertex 510.1504718997202 71.25126737030956 2.0000000000000004
vertex 510.10910086030043 67.33621809551008 2.0000000000000004
vertex 511.04537045464167 68.05464302327213 2.0000000000000004
endloop
endfacet
facet normal 0.0 0.0 1.0
outer loop
vertex 505.5470203154882 71.25126737030956 2.0000000000000004
vertex 505.58839135490797 75.16631664510905 2.0000000000000004
vertex 504.6521217605668 74.44789171734699 2.0000000000000004
endloop
endfacet
facet normal 0.0 0.0 1.0
outer loop
vertex 505.58839135490797 75.16631664510905 2.0000000000000004
vertex 505.5470203154882 71.25126737030956 2.0000000000000004
vertex 505.6254497199636 71.84699784191291 2.0000000000000004
endloop
endfacet
facet normal 0.0 0.0 1.0
outer loop
vertex 505.58839135490797 75.16631664510905 2.0000000000000004
vertex 505.6254497199636 71.84699784191291 2.0000000000000004
vertex 506.6787003902327 75.61793743471851 2.0000000000000004
endloop
endfacet
facet normal 0.0 0.0 1.0
outer loop
vertex 506.6787003902327 75.61793743471851 2.0000000000000004
vertex 505.6254497199636 71.84699784191291 2.0000000000000004
vertex 505.85539309908586 72.40213026636765 2.0000000000000004
endloop
endfacet
facet normal 0.0 0.0 1.0
outer loop
vertex 506.6787003902327 75.61793743471851 2.0000000000000004
vertex 505.85539309908586 72.40213026636765 2.0000000000000004
vertex 506.22118019156693 72.87883328634676 2.0000000000000004
endloop
endfacet
facet normal 0.0 0.0 1.0
outer loop
vertex 506.6787003902327 75.61793743471851 2.0000000000000004
vertex 506.22118019156693 72.87883328634676 2.0000000000000004
vertex 506.6978832115462 73.24462037882782 2.0000000000000004
endloop
endfacet
facet normal 0.0 0.0 1.0
outer loop
vertex 506.6787003902327 75.61793743471851 2.0000000000000004
vertex 506.6978832115462 73.24462037882782 2.0000000000000004
vertex 507.8487461076042 75.7719768757019 2.0000000000000004
endloop
endfacet
facet normal 0.0 0.0 1.0
outer loop
vertex 507.8487461076042 75.7719768757019 2.0000000000000004
vertex 506.6978832115462 73.24462037882782 2.0000000000000004
vertex 507.2530156360009 73.47456375795008 2.0000000000000004
endloop
endfacet
facet normal 0.0 0.0 1.0
outer loop
vertex 507.8487461076042 75.7719768757019 2.0000000000000004
vertex 507.2530156360009 73.47456375795008 2.0000000000000004
vertex 507.8487461076042 73.55299316242557 2.0000000000000004
endloop
endfacet
facet normal 0.0 0.0 1.0
outer loop
vertex 507.8487461076042 75.7719768757019 2.0000000000000004
vertex 507.8487461076042 73.55299316242557 2.0000000000000004
vertex 508.4444765792075 73.47456375795008 2.0000000000000004
endloop
endfacet
facet normal 0.0 0.0 1.0
outer loop
vertex 507.8487461076042 75.7719768757019 2.0000000000000004
vertex 508.4444765792075 73.47456375795008 2.0000000000000004
vertex 509.0187918249758 75.61793743471851 2.0000000000000004
endloop
endfacet
facet normal 0.0 0.0 1.0
outer loop
vertex 509.0187918249758 75.61793743471851 2.0000000000000004
vertex 508.4444765792075 73.47456375795008 2.0000000000000004
vertex 508.9996090036622 73.24462037882783 2.0000000000000004
endloop
endfacet
facet normal 0.0 0.0 1.0
outer loop
vertex 509.0187918249758 75.61793743471851 2.0000000000000004
vertex 508.9996090036622 73.24462037882783 2.0000000000000004
vertex 509.47631202364147 72.87883328634676 2.0000000000000004
endloop
endfacet
facet normal 0.0 0.0 1.0
outer loop
vertex 509.0187918249758 75.61793743471851 2.0000000000000004
vertex 509.47631202364147 72.87883328634676 2.0000000000000004
vertex 510.10910086030043 75.16631664510905 2.0000000000000004
endloop
endfacet
facet normal 0.0 0.0 1.0
outer loop
vertex 510.10910086030043 75.16631664510905 2.0000000000000004
vertex 509.47631202364147 72.87883328634676 2.0000000000000004
vertex 509.84209911612254 72.40213026636765 2.0000000000000004
endloop
endfacet
facet normal 0.0 0.0 1.0
outer loop
vertex 510.10910086030043 75.16631664510905 2.0000000000000004
vertex 509.84209911612254 72.40213026636765 2.0000000000000004
vertex 510.0720424952448 71.84699784191291 2.0000000000000004
endloop
endfacet
facet normal 0.0 0.0 1.0
outer loop
vertex 510.10910086030043 75.16631664510905 2.0000000000000004
vertex 510.0720424952448 71.84699784191291 2.0000000000000004
vertex 510.1504718997202 71.25126737030956 2.0000000000000004
endloop
endfacet
facet normal 0.0 0.0 1.0
outer loop
vertex 510.10910086030043 75.16631664510905 2.0000000000000004
vertex 510.1504718997202 71.25126737030956 2.0000000000000004
vertex 511.04537045464167 74.44789171734699 2.0000000000000004
endloop
endfacet
facet normal 0.0 0.0 1.0
outer loop
vertex 511.04537045464167 74.44789171734699 2.0000000000000004
vertex 510.1504718997202 71.25126737030956 2.0000000000000004
vertex 511.04537045464167 68.05464302327213 2.0000000000000004
endloop
endfacet
facet normal 0.0 0.0 1.0
outer loop
vertex 511.04537045464167 74.44789171734699 2.0000000000000004
vertex 511.04537045464167 68.05464302327213 2.0000000000000004
vertex 511.7637953824036 68.9909126176131 2.0000000000000004
endloop
endfacet
facet normal 0.0 0.0 1.0
outer loop
vertex 511.04537045464167 74.44789171734699 2.0000000000000004
vertex 511.7637953824036 68.9909126176131 2.0000000000000004
vertex 511.7637953824036 73.51162212300602 2.0000000000000004
endloop
endfacet
facet normal 0.0 0.0 1.0
outer loop
vertex 511.7637953824036 73.51162212300602 2.0000000000000004
vertex 511.7637953824036 68.9909126176131 2.0000000000000004
vertex 512.2154161720132 70.08122165293825 2.0000000000000004
endloop
endfacet
facet normal 0.0 0.0 1.0
outer loop
vertex 511.7637953824036 73.51162212300602 2.0000000000000004
vertex 512.2154161720132 70.08122165293825 2.0000000000000004
vertex 512.2154161720132 72.42131308768087 2.0000000000000004
endloop
endfacet
facet normal 0.0 0.0 1.0
outer loop
vertex 512.2154161720132 72.42131308768087 2.0000000000000004
vertex 512.2154161720132 70.08122165293825 2.0000000000000004
vertex 512.3694556129966 71.25126737030956 2.0000000000000004
endloop
endfacet
facet normal 0.499999999999999 -0.8660254037844392 0.0
outer loop
vertex 510.10910086030043 67.33621809551008 2.0000000000000004
vertex 509.0187918249758 66.88459730590061 0.0
vertex 510.10910086030043 67.33621809551008 0.0
endloop
endfacet
facet normal 0.2588190451025396 -0.9659258262890634 0.0
outer loop
vertex 509.0187918249758 66.88459730590061 0.0
vertex 510.10910086030043 67.33621809551008 2.0000000000000004
vertex 509.0187918249758 66.88459730590061 2.0000000000000004
endloop
endfacet
facet normal 0.0 1.0 0.0
outer loop
vertex 507.8487461076042 75.7719768757019 2.0000000000000004
vertex 509.0187918249758 75.61793743471851 0.0
vertex 507.8487461076042 75.7719768757019 0.0
endloop
endfacet
facet normal 0.2588190451025396 0.9659258262890634 0.0
outer loop
vertex 509.0187918249758 75.61793743471851 0.0
vertex 507.8487461076042 75.7719768757019 2.0000000000000004
vertex 509.0187918249758 75.61793743471851 2.0000000000000004
endloop
endfacet
facet normal 0.0 -1.0 0.0
outer loop
vertex 507.8487461076042 66.73055786491722 2.0000000000000004
vertex 506.6787003902327 66.88459730590061 0.0
vertex 507.8487461076042 66.73055786491722 0.0
endloop
endfacet
facet normal -0.2588190451025182 -0.965925826289069 0.0
outer loop
vertex 506.6787003902327 66.88459730590061 0.0
vertex 507.8487461076042 66.73055786491722 2.0000000000000004
vertex 506.6787003902327 66.88459730590061 2.0000000000000004
endloop
endfacet
facet normal -0.8660254037844368 0.5000000000000032 0.0
outer loop
vertex 503.9336968328048 73.51162212300602 2.0000000000000004
vertex 503.4820760431952 72.42131308768087 0.0
vertex 503.4820760431952 72.42131308768087 2.0000000000000004
endloop
endfacet
facet normal -0.9659258262890676 0.2588190451025231 0.0
outer loop
vertex 503.4820760431952 72.42131308768087 0.0
vertex 503.9336968328048 73.51162212300602 2.0000000000000004
vertex 503.9336968328048 73.51162212300602 0.0
endloop
endfacet
facet normal -0.499999999999999 0.8660254037844392 0.0
outer loop
vertex 505.58839135490797 75.16631664510905 2.0000000000000004
vertex 506.6787003902327 75.61793743471851 0.0
vertex 505.58839135490797 75.16631664510905 0.0
endloop
endfacet
facet normal -0.2588190451025396 0.9659258262890634 0.0
outer loop
vertex 506.6787003902327 75.61793743471851 0.0
vertex 505.58839135490797 75.16631664510905 2.0000000000000004
vertex 506.6787003902327 75.61793743471851 2.0000000000000004
endloop
endfacet
facet normal 0.9659258262890676 -0.2588190451025231 0.0
outer loop
vertex 512.2154161720132 70.08122165293825 0.0
vertex 511.7637953824036 68.9909126176131 2.0000000000000004
vertex 511.7637953824036 68.9909126176131 0.0
endloop
endfacet
facet normal 0.8660254037844368 -0.5000000000000032 0.0
outer loop
vertex 511.7637953824036 68.9909126176131 2.0000000000000004
vertex 512.2154161720132 70.08122165293825 0.0
vertex 512.2154161720132 70.08122165293825 2.0000000000000004
endloop
endfacet
facet normal -0.866025403784436 -0.5000000000000047 0.0
outer loop
vertex 503.9336968328048 68.9909126176131 2.0000000000000004
vertex 504.6521217605667 68.05464302327225 0.0
vertex 504.6521217605667 68.05464302327225 2.0000000000000004
endloop
endfacet
facet normal -0.7071067811865543 -0.7071067811865408 0.0
outer loop
vertex 504.6521217605667 68.05464302327225 0.0
vertex 503.9336968328048 68.9909126176131 2.0000000000000004
vertex 503.9336968328048 68.9909126176131 0.0
endloop
endfacet
facet normal 0.7071067811865291 -0.7071067811865659 0.0
outer loop
vertex 511.04537045464167 68.05464302327213 2.0000000000000004
vertex 510.10910086030043 67.33621809551008 0.0
vertex 511.04537045464167 68.05464302327213 0.0
endloop
endfacet
facet normal 0.499999999999999 -0.8660254037844392 0.0
outer loop
vertex 510.10910086030043 67.33621809551008 0.0
vertex 511.04537045464167 68.05464302327213 2.0000000000000004
vertex 510.10910086030043 67.33621809551008 2.0000000000000004
endloop
endfacet
facet normal 1.0 0.0 0.0
outer loop
vertex 512.3694556129966 71.25126737030956 0.0
vertex 512.2154161720132 70.08122165293825 2.0000000000000004
vertex 512.2154161720132 70.08122165293825 0.0
endloop
endfacet
facet normal 0.9659258262890676 -0.2588190451025231 0.0
outer loop
vertex 512.2154161720132 70.08122165293825 2.0000000000000004
vertex 512.3694556129966 71.25126737030956 0.0
vertex 512.3694556129966 71.25126737030956 2.0000000000000004
endloop
endfacet
facet normal -0.9659258262890676 -0.2588190451025231 0.0
outer loop
vertex 503.4820760431952 70.08122165293825 2.0000000000000004
vertex 503.9336968328048 68.9909126176131 0.0
vertex 503.9336968328048 68.9909126176131 2.0000000000000004
endloop
endfacet
facet normal -0.866025403784436 -0.5000000000000047 0.0
outer loop
vertex 503.9336968328048 68.9909126176131 0.0
vertex 503.4820760431952 70.08122165293825 2.0000000000000004
vertex 503.4820760431952 70.08122165293825 0.0
endloop
endfacet
facet normal 0.2588190451025396 0.9659258262890634 0.0
outer loop
vertex 509.0187918249758 75.61793743471851 2.0000000000000004
vertex 510.10910086030043 75.16631664510905 0.0
vertex 509.0187918249758 75.61793743471851 0.0
endloop
endfacet
facet normal 0.499999999999999 0.8660254037844392 0.0
outer loop
vertex 510.10910086030043 75.16631664510905 0.0
vertex 509.0187918249758 75.61793743471851 2.0000000000000004
vertex 510.10910086030043 75.16631664510905 2.0000000000000004
endloop
endfacet
facet normal -0.7071067811865291 0.7071067811865659 0.0
outer loop
vertex 504.6521217605668 74.44789171734699 2.0000000000000004
vertex 503.9336968328048 73.51162212300602 0.0
vertex 503.9336968328048 73.51162212300602 2.0000000000000004
endloop
endfacet
facet normal -0.8660254037844368 0.5000000000000032 0.0
outer loop
vertex 503.9336968328048 73.51162212300602 0.0
vertex 504.6521217605668 74.44789171734699 2.0000000000000004
vertex 504.6521217605668 74.44789171734699 0.0
endloop
endfacet
facet normal -0.2588190451025396 0.9659258262890634 0.0
outer loop
vertex 506.6787003902327 75.61793743471851 2.0000000000000004
vertex 507.8487461076042 75.7719768757019 0.0
vertex 506.6787003902327 75.61793743471851 0.0
endloop
endfacet
facet normal 0.0 1.0 0.0
outer loop
vertex 507.8487461076042 75.7719768757019 0.0
vertex 506.6787003902327 75.61793743471851 2.0000000000000004
vertex 507.8487461076042 75.7719768757019 2.0000000000000004
endloop
endfacet
facet normal 0.7071067811865291 0.7071067811865659 0.0
outer loop
vertex 511.04537045464167 74.44789171734699 0.0
vertex 511.7637953824036 73.51162212300602 2.0000000000000004
vertex 511.7637953824036 73.51162212300602 0.0
endloop
endfacet
facet normal 0.8660254037844368 0.5000000000000032 0.0
outer loop
vertex 511.7637953824036 73.51162212300602 2.0000000000000004
vertex 511.04537045464167 74.44789171734699 0.0
vertex 511.04537045464167 74.44789171734699 2.0000000000000004
endloop
endfacet
facet normal 0.8660254037844368 0.5000000000000032 0.0
outer loop
vertex 511.7637953824036 73.51162212300602 0.0
vertex 512.2154161720132 72.42131308768087 2.0000000000000004
vertex 512.2154161720132 72.42131308768087 0.0
endloop
endfacet
facet normal 0.9659258262890676 0.2588190451025231 0.0
outer loop
vertex 512.2154161720132 72.42131308768087 2.0000000000000004
vertex 511.7637953824036 73.51162212300602 0.0
vertex 511.7637953824036 73.51162212300602 2.0000000000000004
endloop
endfacet
facet normal -1.0 0.0 0.0
outer loop
vertex 503.32803660221185 71.25126737030956 2.0000000000000004
vertex 503.4820760431952 70.08122165293825 0.0
vertex 503.4820760431952 70.08122165293825 2.0000000000000004
endloop
endfacet
facet normal -0.9659258262890676 -0.2588190451025231 0.0
outer loop
vertex 503.4820760431952 70.08122165293825 0.0
vertex 503.32803660221185 71.25126737030956 2.0000000000000004
vertex 503.32803660221185 71.25126737030956 0.0
endloop
endfacet
facet normal 0.2588190451025396 -0.9659258262890634 0.0
outer loop
vertex 509.0187918249758 66.88459730590061 2.0000000000000004
vertex 507.8487461076042 66.73055786491722 0.0
vertex 509.0187918249758 66.88459730590061 0.0
endloop
endfacet
facet normal 0.0 -1.0 0.0
outer loop
vertex 507.8487461076042 66.73055786491722 0.0
vertex 509.0187918249758 66.88459730590061 2.0000000000000004
vertex 507.8487461076042 66.73055786491722 2.0000000000000004
endloop
endfacet
facet normal 0.9659258262890676 0.2588190451025231 0.0
outer loop
vertex 512.2154161720132 72.42131308768087 0.0
vertex 512.3694556129966 71.25126737030956 2.0000000000000004
vertex 512.3694556129966 71.25126737030956 0.0
endloop
endfacet
facet normal 1.0 0.0 0.0
outer loop
vertex 512.3694556129966 71.25126737030956 2.0000000000000004
vertex 512.2154161720132 72.42131308768087 0.0
vertex 512.2154161720132 72.42131308768087 2.0000000000000004
endloop
endfacet
facet normal 0.499999999999999 0.8660254037844392 0.0
outer loop
vertex 510.10910086030043 75.16631664510905 2.0000000000000004
vertex 511.04537045464167 74.44789171734699 0.0
vertex 510.10910086030043 75.16631664510905 0.0
endloop
endfacet
facet normal 0.7071067811865291 0.7071067811865659 0.0
outer loop
vertex 511.04537045464167 74.44789171734699 0.0
vertex 510.10910086030043 75.16631664510905 2.0000000000000004
vertex 511.04537045464167 74.44789171734699 2.0000000000000004
endloop
endfacet
facet normal -0.5000000000000122 -0.8660254037844318 0.0
outer loop
vertex 505.58839135490797 67.33621809551002 2.0000000000000004
vertex 504.6521217605667 68.05464302327225 0.0
vertex 505.58839135490797 67.33621809551002 0.0
endloop
endfacet
facet normal -0.7071067811865543 -0.7071067811865408 0.0
outer loop
vertex 504.6521217605667 68.05464302327225 0.0
vertex 505.58839135490797 67.33621809551002 2.0000000000000004
vertex 504.6521217605667 68.05464302327225 2.0000000000000004
endloop
endfacet
facet normal 0.0 0.0 1.0
outer loop
vertex 500.6043024103926 69.31012453203326 0.0
vertex 500.6043024103926 73.19241020857108 0.0
vertex 500.3487461075606 71.25126737030216 0.0
endloop
endfacet
facet normal 0.0 0.0 1.0
outer loop
vertex 500.6043024103926 73.19241020857108 0.0
vertex 500.6043024103926 69.31012453203326 0.0
vertex 501.35355557917734 67.50126737030216 0.0
endloop
endfacet
facet normal 0.0 0.0 1.0
outer loop
vertex 500.6043024103926 73.19241020857108 0.0
vertex 501.35355557917734 67.50126737030216 0.0
vertex 501.35355557917734 75.00126737030217 0.0
endloop
endfacet
facet normal 0.0 0.0 1.0
outer loop
vertex 501.35355557917734 75.00126737030217 0.0
vertex 501.35355557917734 67.50126737030216 0.0
vertex 502.5454452486615 65.94796651140305 0.0
endloop
endfacet
facet normal 0.0 0.0 1.0
outer loop
vertex 501.35355557917734 75.00126737030217 0.0
vertex 502.5454452486615 65.94796651140305 0.0
vertex 502.5454452486615 76.55456822920127 0.0
endloop
endfacet
facet normal 0.0 0.0 1.0
outer loop
vertex 502.5454452486615 76.55456822920127 0.0
vertex 502.5454452486615 65.94796651140305 0.0
vertex 504.09874610756054 64.75607684191887 0.0
endloop
endfacet
facet normal 0.0 0.0 1.0
outer loop
vertex 502.5454452486615 76.55456822920127 0.0
vertex 504.09874610756054 64.75607684191887 0.0
vertex 503.32803660221185 71.25126737030956 0.0
endloop
endfacet
facet normal 0.0 0.0 1.0
outer loop
vertex 503.32803660221185 71.25126737030956 0.0
vertex 504.09874610756054 64.75607684191887 0.0
vertex 503.4820760431952 70.08122165293825 0.0
endloop
endfacet
facet normal 0.0 0.0 1.0
outer loop
vertex 503.4820760431952 70.08122165293825 0.0
vertex 504.09874610756054 64.75607684191887 0.0
vertex 503.9336968328048 68.9909126176131 0.0
endloop
endfacet
facet normal 0.0 0.0 1.0
outer loop
vertex 503.9336968328048 68.9909126176131 0.0
vertex 504.09874610756054 64.75607684191887 0.0
vertex 504.6521217605667 68.05464302327225 0.0
endloop
endfacet
facet normal 0.0 0.0 1.0
outer loop
vertex 504.6521217605667 68.05464302327225 0.0
vertex 504.09874610756054 64.75607684191887 0.0
vertex 505.9076032692917 64.00682367313414 0.0
endloop
endfacet
facet normal 0.0 0.0 1.0
outer loop
vertex 504.6521217605667 68.05464302327225 0.0
vertex 505.9076032692917 64.00682367313414 0.0
vertex 505.58839135490797 67.33621809551002 0.0
endloop
endfacet
facet normal 0.0 0.0 1.0
outer loop
vertex 505.58839135490797 67.33621809551002 0.0
vertex 505.9076032692917 64.00682367313414 0.0
vertex 506.6787003902327 66.88459730590061 0.0
endloop
endfacet
facet normal 0.0 0.0 1.0
outer loop
vertex 506.6787003902327 66.88459730590061 0.0
vertex 505.9076032692917 64.00682367313414 0.0
vertex 507.8487461075606 63.75126737030215 0.0
endloop
endfacet
facet normal 0.0 0.0 1.0
outer loop
vertex 506.6787003902327 66.88459730590061 0.0
vertex 507.8487461075606 63.75126737030215 0.0
vertex 507.8487461076042 66.73055786491722 0.0
endloop
endfacet
facet normal 0.0 0.0 1.0
outer loop
vertex 507.8487461076042 66.73055786491722 0.0
vertex 507.8487461075606 63.75126737030215 0.0
vertex 509.78988894582955 64.00682367313414 0.0
endloop
endfacet
facet normal 0.0 0.0 1.0
outer loop
vertex 507.8487461076042 66.73055786491722 0.0
vertex 509.78988894582955 64.00682367313414 0.0
vertex 509.0187918249758 66.88459730590061 0.0
endloop
endfacet
facet normal 0.0 0.0 1.0
outer loop
vertex 509.0187918249758 66.88459730590061 0.0
vertex 509.78988894582955 64.00682367313414 0.0
vertex 510.10910086030043 67.33621809551008 0.0
endloop
endfacet
facet normal 0.0 0.0 1.0
outer loop
vertex 510.10910086030043 67.33621809551008 0.0
vertex 509.78988894582955 64.00682367313414 0.0
vertex 511.5987461075606 64.75607684191887 0.0
endloop
endfacet
facet normal 0.0 0.0 1.0
outer loop
vertex 510.10910086030043 67.33621809551008 0.0
vertex 511.5987461075606 64.75607684191887 0.0
vertex 511.04537045464167 68.05464302327213 0.0
endloop
endfacet
facet normal 0.0 0.0 1.0
outer loop
vertex 511.04537045464167 68.05464302327213 0.0
vertex 511.5987461075606 64.75607684191887 0.0
vertex 511.7637953824036 68.9909126176131 0.0
endloop
endfacet
facet normal 0.0 0.0 1.0
outer loop
vertex 511.7637953824036 68.9909126176131 0.0
vertex 511.5987461075606 64.75607684191887 0.0
vertex 513.1520469664597 65.94796651140305 0.0
endloop
endfacet
facet normal 0.0 0.0 1.0
outer loop
vertex 511.7637953824036 68.9909126176131 0.0
vertex 513.1520469664597 65.94796651140305 0.0
vertex 512.2154161720132 70.08122165293825 0.0
endloop
endfacet
facet normal 0.0 0.0 1.0
outer loop
vertex 512.2154161720132 70.08122165293825 0.0
vertex 513.1520469664597 65.94796651140305 0.0
vertex 512.3694556129966 71.25126737030956 0.0
endloop
endfacet
facet normal 0.0 0.0 1.0
outer loop
vertex 503.32803660221185 71.25126737030956 0.0
vertex 504.09874610756066 77.74645789868546 0.0
vertex 502.5454452486615 76.55456822920127 0.0
endloop
endfacet
facet normal 0.0 0.0 1.0
outer loop
vertex 504.09874610756066 77.74645789868546 0.0
vertex 503.32803660221185 71.25126737030956 0.0
vertex 503.4820760431952 72.42131308768087 0.0
endloop
endfacet
facet normal 0.0 0.0 1.0
outer loop
vertex 504.09874610756066 77.74645789868546 0.0
vertex 503.4820760431952 72.42131308768087 0.0
vertex 503.9336968328048 73.51162212300602 0.0
endloop
endfacet
facet normal 0.0 0.0 1.0
outer loop
vertex 504.09874610756066 77.74645789868546 0.0
vertex 503.9336968328048 73.51162212300602 0.0
vertex 504.6521217605668 74.44789171734699 0.0
endloop
endfacet
facet normal 0.0 0.0 1.0
outer loop
vertex 504.09874610756066 77.74645789868546 0.0
vertex 504.6521217605668 74.44789171734699 0.0
vertex 505.9076032692917 78.49571106747018 0.0
endloop
endfacet
facet normal 0.0 0.0 1.0
outer loop
vertex 505.9076032692917 78.49571106747018 0.0
vertex 504.6521217605668 74.44789171734699 0.0
vertex 505.58839135490797 75.16631664510905 0.0
endloop
endfacet
facet normal 0.0 0.0 1.0
outer loop
vertex 505.9076032692917 78.49571106747018 0.0
vertex 505.58839135490797 75.16631664510905 0.0
vertex 506.6787003902327 75.61793743471851 0.0
endloop
endfacet
facet normal 0.0 0.0 1.0
outer loop
vertex 505.9076032692917 78.49571106747018 0.0
vertex 506.6787003902327 75.61793743471851 0.0
vertex 507.8487461075606 78.75126737030217 0.0
endloop
endfacet
facet normal 0.0 0.0 1.0
outer loop
vertex 507.8487461075606 78.75126737030217 0.0
vertex 506.6787003902327 75.61793743471851 0.0
vertex 507.8487461076042 75.7719768757019 0.0
endloop
endfacet
facet normal 0.0 0.0 1.0
outer loop
vertex 507.8487461075606 78.75126737030217 0.0
vertex 507.8487461076042 75.7719768757019 0.0
vertex 509.78988894582955 78.49571106747018 0.0
endloop
endfacet
facet normal 0.0 0.0 1.0
outer loop
vertex 509.78988894582955 78.49571106747018 0.0
vertex 507.8487461076042 75.7719768757019 0.0
vertex 509.0187918249758 75.61793743471851 0.0
endloop
endfacet
facet normal 0.0 0.0 1.0
outer loop
vertex 509.78988894582955 78.49571106747018 0.0
vertex 509.0187918249758 75.61793743471851 0.0
vertex 510.10910086030043 75.16631664510905 0.0
endloop
endfacet
facet normal 0.0 0.0 1.0
outer loop
vertex 509.78988894582955 78.49571106747018 0.0
vertex 510.10910086030043 75.16631664510905 0.0
vertex 511.59874610756066 77.74645789868546 0.0
endloop
endfacet
facet normal 0.0 0.0 1.0
outer loop
vertex 511.59874610756066 77.74645789868546 0.0
vertex 510.10910086030043 75.16631664510905 0.0
vertex 511.04537045464167 74.44789171734699 0.0
endloop
endfacet
facet normal 0.0 0.0 1.0
outer loop
vertex 511.59874610756066 77.74645789868546 0.0
vertex 511.04537045464167 74.44789171734699 0.0
vertex 511.7637953824036 73.51162212300602 0.0
endloop
endfacet
facet normal 0.0 0.0 1.0
outer loop
vertex 511.59874610756066 77.74645789868546 0.0
vertex 511.7637953824036 73.51162212300602 0.0
vertex 513.1520469664597 76.55456822920127 0.0
endloop
endfacet
facet normal 0.0 0.0 1.0
outer loop
vertex 513.1520469664597 76.55456822920127 0.0
vertex 511.7637953824036 73.51162212300602 0.0
vertex 512.2154161720132 72.42131308768087 0.0
endloop
endfacet
facet normal 0.0 0.0 1.0
outer loop
vertex 513.1520469664597 76.55456822920127 0.0
vertex 512.2154161720132 72.42131308768087 0.0
vertex 512.3694556129966 71.25126737030956 0.0
endloop
endfacet
facet normal 0.0 0.0 1.0
outer loop
vertex 513.1520469664597 76.55456822920127 0.0
vertex 512.3694556129966 71.25126737030956 0.0
vertex 513.1520469664597 65.94796651140305 0.0
endloop
endfacet
facet normal 0.0 0.0 1.0
outer loop
vertex 513.1520469664597 76.55456822920127 0.0
vertex 513.1520469664597 65.94796651140305 0.0
vertex 514.3439366359439 67.50126737030216 0.0
endloop
endfacet
facet normal 0.0 0.0 1.0
outer loop
vertex 513.1520469664597 76.55456822920127 0.0
vertex 514.3439366359439 67.50126737030216 0.0
vertex 514.3439366359439 75.00126737030217 0.0
endloop
endfacet
facet normal 0.0 0.0 1.0
outer loop
vertex 514.3439366359439 75.00126737030217 0.0
vertex 514.3439366359439 67.50126737030216 0.0
vertex 515.0931898047286 69.31012453203324 0.0
endloop
endfacet
facet normal 0.0 0.0 1.0
outer loop
vertex 514.3439366359439 75.00126737030217 0.0
vertex 515.0931898047286 69.31012453203324 0.0
vertex 515.0931898047286 73.19241020857106 0.0
endloop
endfacet
facet normal 0.0 0.0 1.0
outer loop
vertex 515.0931898047286 73.19241020857106 0.0
vertex 515.0931898047286 69.31012453203324 0.0
vertex 515.3487461075606 71.25126737030216 0.0
endloop
endfacet
facet normal -0.25881904510252557 0.9659258262890671 0.0
outer loop
vertex 505.9076032692917 78.49571106747018 0.0
vertex 507.8487461075606 78.75126737030217 -1.2
vertex 505.9076032692917 78.49571106747018 -1.2
endloop
endfacet
facet normal 0.0 1.0 0.0
outer loop
vertex 507.8487461075606 78.75126737030217 -1.2
vertex 505.9076032692917 78.49571106747018 0.0
vertex 507.8487461075606 78.75126737030217 0.0
endloop
endfacet
facet normal 0.0 1.0 0.0
outer loop
vertex 507.8487461075606 78.75126737030217 0.0
vertex 509.78988894582955 78.49571106747018 -1.2
vertex 507.8487461075606 78.75126737030217 -1.2
endloop
endfacet
facet normal 0.25881904510251713 0.9659258262890693 0.0
outer loop
vertex 509.78988894582955 78.49571106747018 -1.2
vertex 507.8487461075606 78.75126737030217 0.0
vertex 509.78988894582955 78.49571106747018 0.0
endloop
endfacet
facet normal 0.25881904510251713 0.9659258262890693 0.0
outer loop
vertex 509.78988894582955 78.49571106747018 0.0
vertex 511.59874610756066 77.74645789868546 -1.2
vertex 509.78988894582955 78.49571106747018 -1.2
endloop
endfacet
facet normal 0.5000000000000063 0.866025403784435 0.0
outer loop
vertex 511.59874610756066 77.74645789868546 -1.2
vertex 509.78988894582955 78.49571106747018 0.0
vertex 511.59874610756066 77.74645789868546 0.0
endloop
endfacet
facet normal 0.5000000000000063 0.866025403784435 0.0
outer loop
vertex 511.59874610756066 77.74645789868546 0.0
vertex 513.1520469664597 76.55456822920127 -1.2
vertex 511.59874610756066 77.74645789868546 -1.2
endloop
endfacet
facet normal 0.7071067811865555 0.7071067811865396 0.0
outer loop
vertex 513.1520469664597 76.55456822920127 -1.2
vertex 511.59874610756066 77.74645789868546 0.0
vertex 513.1520469664597 76.55456822920127 0.0
endloop
endfacet
facet normal 0.7071067811865555 0.7071067811865396 0.0
outer loop
vertex 513.1520469664597 76.55456822920127 -1.2
vertex 514.3439366359439 75.00126737030217 0.0
vertex 514.3439366359439 75.00126737030217 -1.2
endloop
endfacet
facet normal 0.8660254037844376 0.500000000000002 0.0
outer loop
vertex 514.3439366359439 75.00126737030217 0.0
vertex 513.1520469664597 76.55456822920127 -1.2
vertex 513.1520469664597 76.55456822920127 0.0
endloop
endfacet
facet normal 0.8660254037844376 0.500000000000002 0.0
outer loop
vertex 514.3439366359439 75.00126737030217 -1.2
vertex 515.0931898047286 73.19241020857106 0.0
vertex 515.0931898047286 73.19241020857106 -1.2
endloop
endfacet
facet normal 0.965925826289067 0.258819045102526 0.0
outer loop
vertex 515.0931898047286 73.19241020857106 0.0
vertex 514.3439366359439 75.00126737030217 -1.2
vertex 514.3439366359439 75.00126737030217 0.0
endloop
endfacet
facet normal 0.965925826289067 0.258819045102526 0.0
outer loop
vertex 515.0931898047286 73.19241020857106 -1.2
vertex 515.3487461075606 71.25126737030216 0.0
vertex 515.3487461075606 71.25126737030216 -1.2
endloop
endfacet
facet normal 1.0 3.7426661561717014e-16 0.0
outer loop
vertex 515.3487461075606 71.25126737030216 0.0
vertex 515.0931898047286 73.19241020857106 -1.2
vertex 515.0931898047286 73.19241020857106 0.0
endloop
endfacet
facet normal 1.0 3.7426661561717014e-16 0.0
outer loop
vertex 515.3487461075606 71.25126737030216 -1.2
vertex 515.0931898047286 69.31012453203324 0.0
vertex 515.0931898047286 69.31012453203324 -1.2
endloop
endfacet
facet normal 0.9659258262890669 -0.25881904510252673 0.0
outer loop
vertex 515.0931898047286 69.31012453203324 0.0
vertex 515.3487461075606 71.25126737030216 -1.2
vertex 515.3487461075606 71.25126737030216 0.0
endloop
endfacet
facet normal 0.9659258262890669 -0.25881904510252673 0.0
outer loop
vertex 515.0931898047286 69.31012453203324 -1.2
vertex 514.3439366359439 67.50126737030216 0.0
vertex 514.3439366359439 67.50126737030216 -1.2
endloop
endfacet
facet normal 0.866025403784437 -0.5000000000000029 0.0
outer loop
vertex 514.3439366359439 67.50126737030216 0.0
vertex 515.0931898047286 69.31012453203324 -1.2
vertex 515.0931898047286 69.31012453203324 0.0
endloop
endfacet
facet normal 0.866025403784437 -0.5000000000000029 0.0
outer loop
vertex 514.3439366359439 67.50126737030216 -1.2
vertex 513.1520469664597 65.94796651140305 0.0
vertex 513.1520469664597 65.94796651140305 -1.2
endloop
endfacet
facet normal 0.7071067811865455 -0.7071067811865496 0.0
outer loop
vertex 513.1520469664597 65.94796651140305 0.0
vertex 514.3439366359439 67.50126737030216 -1.2
vertex 514.3439366359439 67.50126737030216 0.0
endloop
endfacet
facet normal 0.7071067811865455 -0.7071067811865496 0.0
outer loop
vertex 513.1520469664597 65.94796651140305 0.0
vertex 511.5987461075606 64.75607684191887 -1.2
vertex 513.1520469664597 65.94796651140305 -1.2
endloop
endfacet
facet normal 0.5000000000000019 -0.8660254037844377 0.0
outer loop
vertex 511.5987461075606 64.75607684191887 -1.2
vertex 513.1520469664597 65.94796651140305 0.0
vertex 511.5987461075606 64.75607684191887 0.0
endloop
endfacet
facet normal 0.5000000000000019 -0.8660254037844377 0.0
outer loop
vertex 511.5987461075606 64.75607684191887 0.0
vertex 509.78988894582955 64.00682367313414 -1.2
vertex 511.5987461075606 64.75607684191887 -1.2
endloop
endfacet
facet normal 0.25881904510252557 -0.9659258262890671 0.0
outer loop
vertex 509.78988894582955 64.00682367313414 -1.2
vertex 511.5987461075606 64.75607684191887 0.0
vertex 509.78988894582955 64.00682367313414 0.0
endloop
endfacet
facet normal 0.25881904510252557 -0.9659258262890671 0.0
outer loop
vertex 509.78988894582955 64.00682367313414 0.0
vertex 507.8487461075606 63.75126737030215 -1.2
vertex 509.78988894582955 64.00682367313414 -1.2
endloop
endfacet
facet normal 0.0 -1.0 0.0
outer loop
vertex 507.8487461075606 63.75126737030215 -1.2
vertex 509.78988894582955 64.00682367313414 0.0
vertex 507.8487461075606 63.75126737030215 0.0
endloop
endfacet
facet normal 0.0 -1.0 0.0
outer loop
vertex 507.8487461075606 63.75126737030215 0.0
vertex 505.9076032692917 64.00682367313414 -1.2
vertex 507.8487461075606 63.75126737030215 -1.2
endloop
endfacet
facet normal -0.25881904510251713 -0.9659258262890693 0.0
outer loop
vertex 505.9076032692917 64.00682367313414 -1.2
vertex 507.8487461075606 63.75126737030215 0.0
vertex 505.9076032692917 64.00682367313414 0.0
endloop
endfacet
facet normal -0.25881904510251713 -0.9659258262890693 0.0
outer loop
vertex 505.9076032692917 64.00682367313414 0.0
vertex 504.09874610756054 64.75607684191887 -1.2
vertex 505.9076032692917 64.00682367313414 -1.2
endloop
endfacet
facet normal -0.5000000000000063 -0.866025403784435 0.0
outer loop
vertex 504.09874610756054 64.75607684191887 -1.2
vertex 505.9076032692917 64.00682367313414 0.0
vertex 504.09874610756054 64.75607684191887 0.0
endloop
endfacet
facet normal -0.5000000000000063 -0.866025403784435 0.0
outer loop
vertex 504.09874610756054 64.75607684191887 0.0
vertex 502.5454452486615 65.94796651140305 -1.2
vertex 504.09874610756054 64.75607684191887 -1.2
endloop
endfacet
facet normal -0.7071067811865555 -0.7071067811865396 0.0
outer loop
vertex 502.5454452486615 65.94796651140305 -1.2
vertex 504.09874610756054 64.75607684191887 0.0
vertex 502.5454452486615 65.94796651140305 0.0
endloop
endfacet
facet normal -0.8660254037844376 -0.500000000000002 0.0
outer loop
vertex 501.35355557917734 67.50126737030216 0.0
vertex 502.5454452486615 65.94796651140305 -1.2
vertex 502.5454452486615 65.94796651140305 0.0
endloop
endfacet
facet normal -0.7071067811865555 -0.7071067811865396 0.0
outer loop
vertex 502.5454452486615 65.94796651140305 -1.2
vertex 501.35355557917734 67.50126737030216 0.0
vertex 501.35355557917734 67.50126737030216 -1.2
endloop
endfacet
facet normal -0.965925826289067 -0.258819045102526 0.0
outer loop
vertex 500.6043024103926 69.31012453203326 0.0
vertex 501.35355557917734 67.50126737030216 -1.2
vertex 501.35355557917734 67.50126737030216 0.0
endloop
endfacet
facet normal -0.8660254037844376 -0.500000000000002 0.0
outer loop
vertex 501.35355557917734 67.50126737030216 -1.2
vertex 500.6043024103926 69.31012453203326 0.0
vertex 500.6043024103926 69.31012453203326 -1.2
endloop
endfacet
facet normal -1.0 -3.7426661561717014e-16 0.0
outer loop
vertex 500.3487461075606 71.25126737030216 0.0
vertex 500.6043024103926 69.31012453203326 -1.2
vertex 500.6043024103926 69.31012453203326 0.0
endloop
endfacet
facet normal -0.965925826289067 -0.258819045102526 0.0
outer loop
vertex 500.6043024103926 69.31012453203326 -1.2
vertex 500.3487461075606 71.25126737030216 0.0
vertex 500.3487461075606 71.25126737030216 -1.2
endloop
endfacet
facet normal -0.9659258262890669 0.25881904510252673 0.0
outer loop
vertex 500.6043024103926 73.19241020857108 0.0
vertex 500.3487461075606 71.25126737030216 -1.2
vertex 500.3487461075606 71.25126737030216 0.0
endloop
endfacet
facet normal -1.0 -3.7426661561717014e-16 0.0
outer loop
vertex 500.3487461075606 71.25126737030216 -1.2
vertex 500.6043024103926 73.19241020857108 0.0
vertex 500.6043024103926 73.19241020857108 -1.2
endloop
endfacet
facet normal -0.866025403784437 0.5000000000000029 0.0
outer loop
vertex 501.35355557917734 75.00126737030217 0.0
vertex 500.6043024103926 73.19241020857108 -1.2
vertex 500.6043024103926 73.19241020857108 0.0
endloop
endfacet
facet normal -0.9659258262890669 0.25881904510252673 0.0
outer loop
vertex 500.6043024103926 73.19241020857108 -1.2
vertex 501.35355557917734 75.00126737030217 0.0
vertex 501.35355557917734 75.00126737030217 -1.2
endloop
endfacet
facet normal -0.7071067811865455 0.7071067811865496 0.0
outer loop
vertex 502.5454452486615 76.55456822920127 0.0
vertex 501.35355557917734 75.00126737030217 -1.2
vertex 501.35355557917734 75.00126737030217 0.0
endloop
endfacet
facet normal -0.866025403784437 0.5000000000000029 0.0
outer loop
vertex 501.35355557917734 75.00126737030217 -1.2
vertex 502.5454452486615 76.55456822920127 0.0
vertex 502.5454452486615 76.55456822920127 -1.2
endloop
endfacet
facet normal -0.7071067811865455 0.7071067811865496 0.0
outer loop
vertex 502.5454452486615 76.55456822920127 0.0
vertex 504.09874610756066 77.74645789868546 -1.2
vertex 502.5454452486615 76.55456822920127 -1.2
endloop
endfacet
facet normal -0.5000000000000019 0.8660254037844377 0.0
outer loop
vertex 504.09874610756066 77.74645789868546 -1.2
vertex 502.5454452486615 76.55456822920127 0.0
vertex 504.09874610756066 77.74645789868546 0.0
endloop
endfacet
facet normal -0.5000000000000019 0.8660254037844377 0.0
outer loop
vertex 504.09874610756066 77.74645789868546 0.0
vertex 505.9076032692917 78.49571106747018 -1.2
vertex 504.09874610756066 77.74645789868546 -1.2
endloop
endfacet
facet normal -0.25881904510252557 0.9659258262890671 0.0
outer loop
vertex 505.9076032692917 78.49571106747018 -1.2
vertex 504.09874610756066 77.74645789868546 0.0
vertex 505.9076032692917 78.49571106747018 0.0
endloop
endfacet
facet normal -0.25881904510254206 -0.9659258262890628 0.0
outer loop
vertex 508.4444765792075 73.47456375795008 2.0000000000000004
vertex 507.8487461076042 73.55299316242557 -1.200000000000001
vertex 508.4444765792075 73.47456375795008 -1.200000000000001
endloop
endfacet
facet normal 0.0 -1.0 0.0
outer loop
vertex 507.8487461076042 73.55299316242557 -1.200000000000001
vertex 508.4444765792075 73.47456375795008 2.0000000000000004
vertex 507.8487461076042 73.55299316242557 2.0000000000000004
endloop
endfacet
facet normal 0.0 -1.0 0.0
outer loop
vertex 507.8487461076042 73.55299316242557 2.0000000000000004
vertex 507.2530156360009 73.47456375795008 -1.200000000000001
vertex 507.8487461076042 73.55299316242557 -1.200000000000001
endloop
endfacet
facet normal 0.2588190451025503 -0.9659258262890603 0.0
outer loop
vertex 507.2530156360009 73.47456375795008 -1.200000000000001
vertex 507.8487461076042 73.55299316242557 2.0000000000000004
vertex 507.2530156360009 73.47456375795008 2.0000000000000004
endloop
endfacet
facet normal 0.2588190451025503 -0.9659258262890603 0.0
outer loop
vertex 507.2530156360009 73.47456375795008 2.0000000000000004
vertex 506.6978832115462 73.24462037882782 -1.200000000000001
vertex 507.2530156360009 73.47456375795008 -1.200000000000001
endloop
endfacet
facet normal 0.4999999999999835 -0.8660254037844484 0.0
outer loop
vertex 506.6978832115462 73.24462037882782 -1.200000000000001
vertex 507.2530156360009 73.47456375795008 2.0000000000000004
vertex 506.6978832115462 73.24462037882782 2.0000000000000004
endloop
endfacet
facet normal 0.4999999999999835 -0.8660254037844484 0.0
outer loop
vertex 506.6978832115462 73.24462037882782 2.0000000000000004
vertex 506.22118019156693 72.87883328634676 -1.200000000000001
vertex 506.6978832115462 73.24462037882782 -1.200000000000001
endloop
endfacet
facet normal 0.707106781186499 -0.7071067811865961 0.0
outer loop
vertex 506.22118019156693 72.87883328634676 -1.200000000000001
vertex 506.6978832115462 73.24462037882782 2.0000000000000004
vertex 506.22118019156693 72.87883328634676 2.0000000000000004
endloop
endfacet
facet normal 0.707106781186499 -0.7071067811865961 0.0
outer loop
vertex 506.22118019156693 72.87883328634676 -1.200000000000001
vertex 505.85539309908586 72.40213026636765 2.0000000000000004
vertex 505.85539309908586 72.40213026636765 -1.200000000000001
endloop
endfacet
facet normal 0.8660254037844227 -0.5000000000000279 0.0
outer loop
vertex 505.85539309908586 72.40213026636765 2.0000000000000004
vertex 506.22118019156693 72.87883328634676 -1.200000000000001
vertex 506.22118019156693 72.87883328634676 2.0000000000000004
endloop
endfacet
facet normal 0.8660254037844227 -0.5000000000000279 0.0
outer loop
vertex 505.85539309908586 72.40213026636765 -1.200000000000001
vertex 505.6254497199636 71.84699784191291 2.0000000000000004
vertex 505.6254497199636 71.84699784191291 -1.200000000000001
endloop
endfacet
facet normal 0.9659258262890833 -0.2588190451024648 0.0
outer loop
vertex 505.6254497199636 71.84699784191291 2.0000000000000004
vertex 505.85539309908586 72.40213026636765 -1.200000000000001
vertex 505.85539309908586 72.40213026636765 2.0000000000000004
endloop
endfacet
facet normal 0.9659258262890833 -0.2588190451024648 0.0
outer loop
vertex 505.6254497199636 71.84699784191291 -1.200000000000001
vertex 505.5470203154882 71.25126737030956 2.0000000000000004
vertex 505.5470203154882 71.25126737030956 -1.200000000000001
endloop
endfacet
facet normal 1.0 0.0 0.0
outer loop
vertex 505.5470203154882 71.25126737030956 2.0000000000000004
vertex 505.6254497199636 71.84699784191291 -1.200000000000001
vertex 505.6254497199636 71.84699784191291 2.0000000000000004
endloop
endfacet
facet normal 1.0 0.0 0.0
outer loop
vertex 505.5470203154882 71.25126737030956 -1.200000000000001
vertex 505.6254497199636 70.65553689870622 2.0000000000000004
vertex 505.6254497199636 70.65553689870622 -1.200000000000001
endloop
endfacet
facet normal 0.9659258262890833 0.2588190451024648 0.0
outer loop
vertex 505.6254497199636 70.65553689870622 2.0000000000000004
vertex 505.5470203154882 71.25126737030956 -1.200000000000001
vertex 505.5470203154882 71.25126737030956 2.0000000000000004
endloop
endfacet
facet normal 0.9659258262890833 0.2588190451024648 0.0
outer loop
vertex 505.6254497199636 70.65553689870622 -1.200000000000001
vertex 505.85539309908586 70.10040447425148 2.0000000000000004
vertex 505.85539309908586 70.10040447425148 -1.200000000000001
endloop
endfacet
facet normal 0.8660254037844141 0.5000000000000427 0.0
outer loop
vertex 505.85539309908586 70.10040447425148 2.0000000000000004
vertex 505.6254497199636 70.65553689870622 -1.200000000000001
vertex 505.6254497199636 70.65553689870622 2.0000000000000004
endloop
endfacet
facet normal 0.8660254037844141 0.5000000000000427 0.0
outer loop
vertex 505.85539309908586 70.10040447425148 -1.200000000000001
vertex 506.22118019156693 69.6237014542724 2.0000000000000004
vertex 506.22118019156693 69.6237014542724 -1.200000000000001
endloop
endfacet
facet normal 0.7071067811865456 0.7071067811865495 0.0
outer loop
vertex 506.22118019156693 69.6237014542724 2.0000000000000004
vertex 505.85539309908586 70.10040447425148 -1.200000000000001
vertex 505.85539309908586 70.10040447425148 2.0000000000000004
endloop
endfacet
facet normal 0.7071067811865456 0.7071067811865495 0.0
outer loop
vertex 506.22118019156693 69.6237014542724 2.0000000000000004
vertex 506.69788321154607 69.25791436179128 -1.200000000000001
vertex 506.22118019156693 69.6237014542724 -1.200000000000001
endloop
endfacet
facet normal 0.500000000000023 0.8660254037844256 0.0
outer loop
vertex 506.69788321154607 69.25791436179128 -1.200000000000001
vertex 506.22118019156693 69.6237014542724 2.0000000000000004
vertex 506.69788321154607 69.25791436179128 2.0000000000000004
endloop
endfacet
facet normal 0.500000000000023 0.8660254037844256 0.0
outer loop
vertex 506.69788321154607 69.25791436179128 2.0000000000000004
vertex 507.2530156360009 69.02797098266903 -1.200000000000001
vertex 506.69788321154607 69.25791436179128 -1.200000000000001
endloop
endfacet
facet normal 0.25881904510250525 0.9659258262890725 0.0
outer loop
vertex 507.2530156360009 69.02797098266903 -1.200000000000001
vertex 506.69788321154607 69.25791436179128 2.0000000000000004
vertex 507.2530156360009 69.02797098266903 2.0000000000000004
endloop
endfacet
facet normal 0.25881904510250525 0.9659258262890725 0.0
outer loop
vertex 507.2530156360009 69.02797098266903 2.0000000000000004
vertex 507.8487461076042 68.94954157819356 -1.200000000000001
vertex 507.2530156360009 69.02797098266903 -1.200000000000001
endloop
endfacet
facet normal -9.294287621159697e-15 1.0 0.0
outer loop
vertex 507.8487461076042 68.94954157819356 -1.200000000000001
vertex 507.2530156360009 69.02797098266903 2.0000000000000004
vertex 507.8487461076042 68.94954157819356 2.0000000000000004
endloop
endfacet
facet normal -9.294287621159697e-15 1.0 0.0
outer loop
vertex 507.8487461076042 68.94954157819356 2.0000000000000004
vertex 508.4444765792075 69.02797098266905 -1.200000000000001
vertex 507.8487461076042 68.94954157819356 -1.200000000000001
endloop
endfacet
facet normal -0.2588190451025503 0.9659258262890603 0.0
outer loop
vertex 508.4444765792075 69.02797098266905 -1.200000000000001
vertex 507.8487461076042 68.94954157819356 2.0000000000000004
vertex 508.4444765792075 69.02797098266905 2.0000000000000004
endloop
endfacet
facet normal -0.2588190451025503 0.9659258262890603 0.0
outer loop
vertex 508.4444765792075 69.02797098266905 2.0000000000000004
vertex 508.9996090036622 69.25791436179131 -1.200000000000001
vertex 508.4444765792075 69.02797098266905 -1.200000000000001
endloop
endfacet
facet normal -0.4999999999999835 0.8660254037844484 0.0
outer loop
vertex 508.9996090036622 69.25791436179131 -1.200000000000001
vertex 508.4444765792075 69.02797098266905 2.0000000000000004
vertex 508.9996090036622 69.25791436179131 2.0000000000000004
endloop
endfacet
facet normal -0.4999999999999835 0.8660254037844484 0.0
outer loop
vertex 508.9996090036622 69.25791436179131 2.0000000000000004
vertex 509.47631202364147 69.62370145427236 -1.200000000000001
vertex 508.9996090036622 69.25791436179131 -1.200000000000001
endloop
endfacet
facet normal -0.707106781186499 0.7071067811865961 0.0
outer loop
vertex 509.47631202364147 69.62370145427236 -1.200000000000001
vertex 508.9996090036622 69.25791436179131 2.0000000000000004
vertex 509.47631202364147 69.62370145427236 2.0000000000000004
endloop
endfacet
facet normal -0.8660254037844227 0.5000000000000279 0.0
outer loop
vertex 509.84209911612254 70.10040447425148 2.0000000000000004
vertex 509.47631202364147 69.62370145427236 -1.200000000000001
vertex 509.47631202364147 69.62370145427236 2.0000000000000004
endloop
endfacet
facet normal -0.707106781186499 0.7071067811865961 0.0
outer loop
vertex 509.47631202364147 69.62370145427236 -1.200000000000001
vertex 509.84209911612254 70.10040447425148 2.0000000000000004
vertex 509.84209911612254 70.10040447425148 -1.200000000000001
endloop
endfacet
facet normal -0.9659258262890833 0.2588190451024648 0.0
outer loop
vertex 510.0720424952448 70.65553689870622 2.0000000000000004
vertex 509.84209911612254 70.10040447425148 -1.200000000000001
vertex 509.84209911612254 70.10040447425148 2.0000000000000004
endloop
endfacet
facet normal -0.8660254037844227 0.5000000000000279 0.0
outer loop
vertex 509.84209911612254 70.10040447425148 -1.200000000000001
vertex 510.0720424952448 70.65553689870622 2.0000000000000004
vertex 510.0720424952448 70.65553689870622 -1.200000000000001
endloop
endfacet
facet normal -1.0 0.0 0.0
outer loop
vertex 510.1504718997202 71.25126737030956 2.0000000000000004
vertex 510.0720424952448 70.65553689870622 -1.200000000000001
vertex 510.0720424952448 70.65553689870622 2.0000000000000004
endloop
endfacet
facet normal -0.9659258262890833 0.2588190451024648 0.0
outer loop
vertex 510.0720424952448 70.65553689870622 -1.200000000000001
vertex 510.1504718997202 71.25126737030956 2.0000000000000004
vertex 510.1504718997202 71.25126737030956 -1.200000000000001
endloop
endfacet
facet normal -0.9659258262890833 -0.2588190451024648 0.0
outer loop
vertex 510.0720424952448 71.84699784191291 2.0000000000000004
vertex 510.1504718997202 71.25126737030956 -1.200000000000001
vertex 510.1504718997202 71.25126737030956 2.0000000000000004
endloop
endfacet
facet normal -1.0 0.0 0.0
outer loop
vertex 510.1504718997202 71.25126737030956 -1.200000000000001
vertex 510.0720424952448 71.84699784191291 2.0000000000000004
vertex 510.0720424952448 71.84699784191291 -1.200000000000001
endloop
endfacet
facet normal -0.8660254037844227 -0.5000000000000279 0.0
outer loop
vertex 509.84209911612254 72.40213026636765 2.0000000000000004
vertex 510.0720424952448 71.84699784191291 -1.200000000000001
vertex 510.0720424952448 71.84699784191291 2.0000000000000004
endloop
endfacet
facet normal -0.9659258262890833 -0.2588190451024648 0.0
outer loop
vertex 510.0720424952448 71.84699784191291 -1.200000000000001
vertex 509.84209911612254 72.40213026636765 2.0000000000000004
vertex 509.84209911612254 72.40213026636765 -1.200000000000001
endloop
endfacet
facet normal -0.7071067811865043 -0.7071067811865909 0.0
outer loop
vertex 509.47631202364147 72.87883328634676 2.0000000000000004
vertex 509.84209911612254 72.40213026636765 -1.200000000000001
vertex 509.84209911612254 72.40213026636765 2.0000000000000004
endloop
endfacet
facet normal -0.8660254037844227 -0.5000000000000279 0.0
outer loop
vertex 509.84209911612254 72.40213026636765 -1.200000000000001
vertex 509.47631202364147 72.87883328634676 2.0000000000000004
vertex 509.47631202364147 72.87883328634676 -1.200000000000001
endloop
endfacet
facet normal -0.7071067811865043 -0.7071067811865909 0.0
outer loop
vertex 509.47631202364147 72.87883328634676 2.0000000000000004
vertex 508.9996090036622 73.24462037882783 -1.200000000000001
vertex 509.47631202364147 72.87883328634676 -1.200000000000001
endloop
endfacet
facet normal -0.4999999999999824 -0.8660254037844488 0.0
outer loop
vertex 508.9996090036622 73.24462037882783 -1.200000000000001
vertex 509.47631202364147 72.87883328634676 2.0000000000000004
vertex 508.9996090036622 73.24462037882783 2.0000000000000004
endloop
endfacet
facet normal -0.4999999999999824 -0.8660254037844488 0.0
outer loop
vertex 508.9996090036622 73.24462037882783 2.0000000000000004
vertex 508.4444765792075 73.47456375795008 -1.200000000000001
vertex 508.9996090036622 73.24462037882783 -1.200000000000001
endloop
endfacet
facet normal -0.25881904510254206 -0.9659258262890628 0.0
outer loop
vertex 508.4444765792075 73.47456375795008 -1.200000000000001
vertex 508.9996090036622 73.24462037882783 2.0000000000000004
vertex 508.4444765792075 73.47456375795008 2.0000000000000004
endloop
endfacet
endsolid model
